<svg width="107" height="144" viewBox="0 0 107 144" fill="none" xmlns="http://www.w3.org/2000/svg">
<g opacity="0.3">
<path d="M27.6437 33.908C36.3012 5.58004 63.1364 7.58648 72.6625 11.1169C81.2206 13.7324 105.112 25.3709 96.1082 54.832C91.2598 70.6963 77.527 78.8891 71.2826 85.0328C69.6968 86.8196 66.1443 91.6397 64.6205 96.6255C63.0968 101.611 60.4337 102.16 58.7221 101.637L33.0479 93.7907C31.336 93.2686 28.3349 92.4742 29.8178 85.9891C31.3006 79.5041 31.8445 77.3163 30.7745 72.6528C23.6738 50.1636 25.2198 41.8394 27.6437 33.908Z" fill="#D4F34A"/>
<rect x="27.7656" y="98.8311" width="33.4089" height="7.9545" transform="rotate(16.9941 27.7656 98.8311)" fill="#44C6B6"/>
<rect x="24.5117" y="109.481" width="33.4089" height="7.9545" transform="rotate(16.9941 24.5117 109.481)" fill="#44C6B6"/>
<path d="M53.2079 129.895L21.2578 120.131C20.3279 123.174 21.5194 128.528 34.908 132.62C48.2966 136.712 52.2779 132.938 53.2079 129.895Z" fill="#44C6B6"/>
</g>
</svg>
