<svg width="125" height="150" viewBox="0 0 125 150" fill="none" xmlns="http://www.w3.org/2000/svg">
<g opacity="0.3">
<path d="M30.2179 77.6571C21.483 64.9099 24.2219 32.5411 27.0154 17.7472C41.4539 22.0128 71.4546 34.3783 78.8109 47.9678C83.8986 57.3664 91.9235 72.266 95.5953 87.8389C107.719 86.3799 130.957 128.287 120.433 116.871C112.013 107.739 104.014 111.031 97.0146 110.549C97.0146 110.549 97.0147 110.549 97.0147 110.548C96.2764 115.368 94.7302 120.016 92.1382 124.335C87.113 124.67 82.2703 123.926 77.6425 122.385C74.8772 128.834 68.1192 134.557 72.403 146.216C77.758 160.791 51.0735 120.989 57.9046 110.867C58.1808 111.017 58.4755 111.187 58.7872 111.376C46.2492 100.953 36.3777 86.6465 30.2179 77.6571Z" fill="#D4F34A" stroke="#D4F34A"/>
<path d="M24.1141 32.2899C24.0827 28.3795 25.4532 20.0105 26.1423 16.3148C29.5996 17.1496 36.9512 19.5347 41.2826 21.8003L24.1141 32.2899Z" fill="#44C6B6"/>
<circle cx="52.364" cy="59.2363" r="13.4129" transform="rotate(-31.424 52.364 59.2363)" fill="#44C6B6"/>
</g>
</svg>
