<svg width="117" height="118" viewBox="0 0 117 118" fill="none" xmlns="http://www.w3.org/2000/svg">
<path opacity="0.3" d="M54.8879 3.03625C56.3351 -0.00594759 60.6649 -0.00594044 62.1121 3.03626L69.2859 18.1162C70.2704 20.1856 72.7886 21.0065 74.8035 19.9149L89.9503 11.7086C92.9535 10.0815 96.4829 12.7243 95.7668 16.0641L92.4097 31.723C91.9122 34.0436 93.5331 36.2846 95.8929 36.5385L112.655 38.3425C116.123 38.7157 117.485 43.0393 114.857 45.333L102.717 55.9299C100.891 57.5239 100.891 60.3629 102.717 61.9569L114.857 72.5537C117.485 74.8474 116.123 79.171 112.655 79.5442L95.8929 81.3482C93.5331 81.6021 91.9122 83.8431 92.4097 86.1637L95.7668 101.823C96.4829 105.162 92.9535 107.805 89.9503 106.178L74.8035 97.9719C72.7886 96.8802 70.2704 97.7012 69.2859 99.7705L62.1121 114.85C60.6649 117.893 56.3351 117.893 54.8879 114.85L47.714 99.7705C46.7296 97.7012 44.2114 96.8802 42.1965 97.9719L27.0497 106.178C24.0465 107.805 20.5171 105.162 21.2332 101.823L24.5903 86.1637C25.0878 83.8431 23.4669 81.6021 21.1071 81.3482L4.34505 79.5442C0.877003 79.171 -0.485131 74.8474 2.1427 72.5537L14.2831 61.9569C16.1092 60.3629 16.1092 57.5239 14.2831 55.9299L2.1427 45.333C-0.485131 43.0393 0.877005 38.7157 4.34505 38.3425L21.1071 36.5385C23.4669 36.2846 25.0878 34.0436 24.5903 31.723L21.2332 16.0641C20.5171 12.7243 24.0465 10.0815 27.0497 11.7086L42.1965 19.9149C44.2114 21.0065 46.7296 20.1856 47.7141 18.1162L54.8879 3.03625Z" fill="#D4F34A"/>
</svg>
