<svg width="82" height="94" viewBox="0 0 82 94" fill="none" xmlns="http://www.w3.org/2000/svg">
<path opacity="0.3" d="M32.3887 3.05588C33.8367 0.0159979 38.1633 0.0159898 39.6113 3.05587L44.4181 13.1476C45.4028 15.2151 47.9189 16.0353 49.933 14.9455L60.1035 9.44217C63.1071 7.81687 66.6348 10.4605 65.918 13.7997L63.7121 24.0761C63.2139 26.3972 64.8351 28.6389 67.1955 28.8926L78.2574 30.0816C81.7269 30.4546 83.0887 34.7808 80.4584 37.0739L72.5606 43.959C70.7319 45.5532 70.7319 48.3951 72.5606 49.9892L80.4584 56.8744C83.0887 59.1674 81.7269 63.4937 78.2574 63.8666L67.1955 65.0556C64.8351 65.3093 63.2139 67.5511 63.7121 69.8722L65.918 80.1486C66.6348 83.4877 63.1071 86.1314 60.1035 84.5061L49.933 79.0027C47.9189 77.9129 45.4028 78.7332 44.4181 80.8006L39.6113 90.8924C38.1633 93.9322 33.8367 93.9323 32.3887 90.8924L27.5819 80.8006C26.5972 78.7332 24.0811 77.9129 22.067 79.0027L11.8965 84.5061C8.89289 86.1314 5.36524 83.4877 6.082 80.1486L8.28789 69.8722C8.78613 67.5511 7.16486 65.3093 4.80446 65.0556L-6.25737 63.8666C-9.72689 63.4937 -11.0887 59.1674 -8.45839 56.8744L-0.56057 49.9892C1.26808 48.3951 1.26807 45.5532 -0.560574 43.959L-8.4584 37.0738C-11.0887 34.7808 -9.72688 30.4546 -6.25737 30.0816L4.80447 28.8926C7.16487 28.6389 8.78613 26.3972 8.28789 24.0761L6.082 13.7997C5.36524 10.4605 8.8929 7.81687 11.8965 9.44217L22.067 14.9455C24.0811 16.0353 26.5972 15.2151 27.5819 13.1476L32.3887 3.05588Z" fill="#D4F34A"/>
</svg>
