<svg width="29" height="82" viewBox="0 0 29 82" fill="none" xmlns="http://www.w3.org/2000/svg">
<path d="M12.6212 25.5753L19.6403 0L28.751 29.4951L12.6212 25.5753Z" fill="#F0E266"/>
<path d="M9.80505 66.7995L28.5864 37.6191L17.1965 81.4904L9.80505 66.7995Z" fill="#F0E266"/>
<path d="M9.82862 33.5742L10.6303 31.1486C11.8991 37.9286 13.0969 44.3295 14.3695 51.1332L0 42.9699C2.41056 37.4325 4.76467 32.0245 7.30635 26.1802C7.87392 28.8995 8.34687 31.1683 8.82981 33.4866L9.22714 35.3942L9.82862 33.5742Z" fill="#F0E266"/>
<path d="M12.85 29.1211L28.4937 32.8439L16.9081 51.0314C16.3723 48.1393 15.8491 45.3137 15.3286 42.5028C14.5084 38.0735 13.695 33.6806 12.85 29.1211Z" fill="#F0E266"/>
<path d="M14.2234 54.9164L8.53405 63.9349C7.63021 62.0458 6.74126 60.1867 5.86222 58.3484C4.05815 54.5758 2.29608 50.8909 0.533813 47.2144L14.2234 54.9164Z" fill="#F0E266"/>
</svg>
